{"title":"Mockingjay:Part 2(2015)MPEG-4[DaScubaDude]","uid":14234740,"size":1389771474,"categoryP":"video","categoryS":"movies","magnet":"?xt=urn:btih:c695b99f8e2f3ead00b4232871c56c05f4157b2c&amp;dn=Mockingjay%3APart+2%282015%29MPEG-4%5BDaScubaDude%5D&amp;tr=udp%3A%2F%2Ftracker.leechers-paradise.org%3A6969&amp;tr=udp%3A%2F%2Fzer0day.ch%3A1337&amp;tr=udp%3A%2F%2Fopen.demonii.com%3A1337&amp;tr=udp%3A%2F%2Ftracker.coppersurfer.tk%3A6969&amp;tr=udp%3A%2F%2Fexodus.desync.com%3A6969","seeders":1,"leechers":0,"uploader":"dascuba","files":1,"time":1460086478,"description":"The Hunger Games: Mockingjay - Part 2 (2015)\r\nPG-13 | 2h 17min | Adventure, Sci-Fi | 20 November 2015 (USA)\r\nAs the war of Panem escalates to the destruction of other districts, Katniss Everdeen, the reluctant leader of the rebellion, must bring together an army against President Snow, while all she holds dear hangs in the balance.\r\nDirector: Francis Lawrence\r\nWriters: Peter Craig (screenplay), Danny Strong (screenplay) | \r\nStars: Jennifer Lawrence, Josh Hutcherson, Liam Hemsworth \r\n\r\nGeneral\r\nComplete name                            : MockingjayMOCKINGJAY_2_Title1.mp4\r\nFormat                                   : MPEG-4\r\nFormat profile                           : Base Media\r\nCodec ID                                 : isom\r\nFile size                                : 1.29 GiB\r\nDuration                                 : 2h 16mn\r\nOverall bit rate                         : 1 354 Kbps\r\nMovie name                               : MOCKINGJAY_2\r\nGenre                                    : Action\r\nWriting application                      : Lavf54.6.100\r\n\r\nVideo\r\nID                                       : 1\r\nFormat                                   : AVC\r\nFormat/Info                              : Advanced Video Codec\r\nFormat profile                           :   \r\nFormat settings, CABAC                   : No\r\nFormat settings, ReFrames                : 6 frames\r\nCodec ID                                 : avc1\r\nCodec ID/Info                            : Advanced Video Coding\r\nDuration                                 : 2h 16mn\r\nBit rate                                 : 1 219 Kbps\r\nWidth                                    : 720 pixels\r\nHeight                                   : 404 pixels\r\nDisplay aspect ratio                     : 16:9\r\nFrame rate mode                          : Constant\r\nFrame rate                               : 29.970 fps\r\nColor space                              : YUV\r\nChroma subsampling                       : 4:2:0\r\nBit depth                                : 8 bits\r\nScan type                                : Progressive\r\nBits/(Pixel*Frame)                       : 0.140\r\nStream size                              : 1.17 GiB (90%)\r\n\r\nAudio\r\nID                                       : 2\r\nFormat                                   : AAC\r\nFormat/Info                              : Advanced Audio Codec\r\nFormat profile                           : LC\r\nCodec ID                                 : 40\r\nDuration                                 : 2h 16mn\r\nBit rate mode                            : Constant\r\nBit rate                                 : 128 Kbps\r\nChannel(s)                               : 2 channels\r\nChannel positions                        : Front: L R\r\nSampling rate                            : 44.1 KHz\r\nCompression mode                         : Lossy\r\nStream size                              : 125 MiB (9%)","torrent":{"xt":"urn:btih:c695b99f8e2f3ead00b4232871c56c05f4157b2c","amp;dn":"Mockingjay%3APart+2%282015%29MPEG-4%5BDaScubaDude%5D","amp;tr":["udp%3A%2F%2Ftracker.leechers-paradise.org%3A6969","udp%3A%2F%2Fzer0day.ch%3A1337","udp%3A%2F%2Fopen.demonii.com%3A1337","udp%3A%2F%2Ftracker.coppersurfer.tk%3A6969","udp%3A%2F%2Fexodus.desync.com%3A6969"],"infoHash":"c695b99f8e2f3ead00b4232871c56c05f4157b2c","infoHashBuffer":{"type":"Buffer","data":[198,149,185,159,142,47,62,173,0,180,35,40,113,197,108,5,244,21,123,44]},"announce":[],"urlList":[]}}